<?xml version="1.0" standalone="no"?><!DOCTYPE svg PUBLIC "-//W3C//DTD SVG 1.1//EN" "http://www.w3.org/Graphics/SVG/1.1/DTD/svg11.dtd"><svg t="1555656884563" class="icon" style="" viewBox="0 0 1024 1024" version="1.1" xmlns="http://www.w3.org/2000/svg" p-id="1436" xmlns:xlink="http://www.w3.org/1999/xlink" width="200" height="200"><defs><style type="text/css"></style></defs><path d="M292 392.8c32.1 0 62.2 12.5 84.9 35.1 22.7 22.7 35.1 52.8 35.1 84.9s-12.5 62.2-35.1 84.9c-22.7 22.7-52.8 35.1-84.9 35.1s-62.2-12.5-84.9-35.1C184.4 575 172 544.9 172 512.8s12.5-62.2 35.1-84.9c22.7-22.7 52.8-35.1 84.9-35.1m0-60c-99.4 0-180 80.6-180 180s80.6 180 180 180 180-80.6 180-180-80.6-180-180-180zM732 172c32.1 0 62.2 12.5 84.9 35.1 22.7 22.7 35.1 52.8 35.1 84.9s-12.5 62.2-35.1 84.9C794.2 399.5 764.1 412 732 412s-62.2-12.5-84.9-35.1C624.5 354.2 612 324.1 612 292s12.5-62.2 35.1-84.9c22.7-22.6 52.8-35.1 84.9-35.1m0-60c-99.4 0-180 80.6-180 180s80.6 180 180 180 180-80.6 180-180-80.6-180-180-180zM732 612c32.1 0 62.2 12.5 84.9 35.1 22.7 22.7 35.1 52.8 35.1 84.9s-12.5 62.2-35.1 84.9C794.2 839.5 764.1 852 732 852s-62.2-12.5-84.9-35.1C624.5 794.2 612 764.1 612 732s12.5-62.2 35.1-84.9c22.7-22.6 52.8-35.1 84.9-35.1m0-60c-99.4 0-180 80.6-180 180s80.6 180 180 180 180-80.6 180-180-80.6-180-180-180z" fill="#1296db" p-id="1437"></path><path d="M417.993 401.245l164.367-94.9 30 51.96-164.367 94.9zM599.01 718.246l-180.994-104.5 30-51.96 180.994 104.5z" fill="#1296db" p-id="1438"></path></svg>